HIERARCHY
ROOT hip
{
  OFFSET 0 90.174 2.4664
  CHANNELS 6 Xposition Yposition Zposition Zrotation Xrotation Yrotation
  JOINT abdomen
  {
    OFFSET 0 -1.186 -1.5018
    CHANNELS 6 Xposition Yposition Zposition Zrotation Xrotation Yrotation
    JOINT abdomen2
    {
      OFFSET 0 9.964 0.2134
      CHANNELS 6 Xposition Yposition Zposition Zrotation Xrotation Yrotation
      JOINT chest
      {
        OFFSET 0 13.134 -3.2573
        CHANNELS 6 Xposition Yposition Zposition Zrotation Xrotation Yrotation
        JOINT neck
        {
          OFFSET 0 20.686 -1.6905
          CHANNELS 6 Xposition Yposition Zposition Zrotation Xrotation Yrotation
          JOINT head
          {
            OFFSET 0 7.238 -0.1237
            CHANNELS 6 Xposition Yposition Zposition Zrotation Xrotation Yrotation
            End Site
            {
              OFFSET 0 0 0
            }
          }
        }
        JOINT lCollar
        {
          OFFSET 1.7069 20.075 5.0056
          CHANNELS 6 Xposition Yposition Zposition Zrotation Xrotation Yrotation
          JOINT lShldr
          {
            OFFSET 13.6458 -0.047 -4.849
            CHANNELS 6 Xposition Yposition Zposition Zrotation Xrotation Yrotation
            JOINT lForeArm
            {
              OFFSET 28.3255 -0.9759 2.2888
              CHANNELS 6 Xposition Yposition Zposition Zrotation Xrotation Yrotation
              JOINT lHand
              {
                OFFSET 22.1583 -0.53 10.8316
                CHANNELS 6 Xposition Yposition Zposition Zrotation Xrotation Yrotation
                JOINT lThumb1
                {
                  OFFSET 0.786 0.112 2.5817
                  CHANNELS 6 Xposition Yposition Zposition Zrotation Xrotation Yrotation
                  JOINT lThumb2
                  {
                    OFFSET 0.3601 -0.878 4.2331
                    CHANNELS 6 Xposition Yposition Zposition Zrotation Xrotation Yrotation
                    JOINT lThumb2_End
                    {
                      OFFSET 1.8127 -1.216 2.2227
                      CHANNELS 6 Xposition Yposition Zposition Zrotation Xrotation Yrotation
                      End Site
                      {
                        OFFSET 0.0181 -0.0122 0.0222
                      }
                    }
                  }
                }
                JOINT lCarpal1
                {
                  OFFSET 0.9571 1.114 1.7695
                  CHANNELS 6 Xposition Yposition Zposition Zrotation Xrotation Yrotation
                  JOINT lIndex1
                  {
                    OFFSET 4.1246 0.487 4.1451
                    CHANNELS 6 Xposition Yposition Zposition Zrotation Xrotation Yrotation
                    JOINT lIndex2
                    {
                      OFFSET 3.4052 -1.454 2.7682
                      CHANNELS 6 Xposition Yposition Zposition Zrotation Xrotation Yrotation
                      JOINT lIndex2_End
                      {
                        OFFSET 1.4531 -1.795 1.2713
                        CHANNELS 6 Xposition Yposition Zposition Zrotation Xrotation Yrotation
                        End Site
                        {
                          OFFSET 0.0145 -0.0179 0.0127
                        }
                      }
                    }
                  }
                  JOINT lMid1
                  {
                    OFFSET 5.6954 0.21 2.1184
                    CHANNELS 6 Xposition Yposition Zposition Zrotation Xrotation Yrotation
                    JOINT lMid2
                    {
                      OFFSET 3.9766 -1.54 2.3863
                      CHANNELS 6 Xposition Yposition Zposition Zrotation Xrotation Yrotation
                      JOINT lMid2_End
                      {
                        OFFSET 1.4042 -1.926 1.125
                        CHANNELS 6 Xposition Yposition Zposition Zrotation Xrotation Yrotation
                        End Site
                        {
                          OFFSET 0.014 -0.0193 0.0113
                        }
                      }
                    }
                  }
                }
                JOINT lCarpal2
                {
                  OFFSET 2.0956 0.66 -0.3894
                  CHANNELS 6 Xposition Yposition Zposition Zrotation Xrotation Yrotation
                  JOINT lRing1
                  {
                    OFFSET 5.0395 -0.09 2.4971
                    CHANNELS 6 Xposition Yposition Zposition Zrotation Xrotation Yrotation
                    JOINT lRing2
                    {
                      OFFSET 3.7921 -1.552 1.4806
                      CHANNELS 6 Xposition Yposition Zposition Zrotation Xrotation Yrotation
                      JOINT lRing2_End
                      {
                        OFFSET 1.4655 -1.808 0.9609
                        CHANNELS 6 Xposition Yposition Zposition Zrotation Xrotation Yrotation
                        End Site
                        {
                          OFFSET 0.0147 -0.0181 0.0096
                        }
                      }
                    }
                  }
                  JOINT lPinky1
                  {
                    OFFSET 4.9141 -1.269 0.3591
                    CHANNELS 6 Xposition Yposition Zposition Zrotation Xrotation Yrotation
                    JOINT lPinky2
                    {
                      OFFSET 3.1477 -1.685 0.8462
                      CHANNELS 6 Xposition Yposition Zposition Zrotation Xrotation Yrotation
                      JOINT lPinky2_End
                      {
                        OFFSET 0.8055 -1.585 0.7955
                        CHANNELS 6 Xposition Yposition Zposition Zrotation Xrotation Yrotation
                        End Site
                        {
                          OFFSET 0.0081 -0.0158 0.008
                        }
                      }
                    }
                  }
                }
              }
            }
          }
        }
        JOINT rCollar
        {
          OFFSET -1.7069 20.075 5.0056
          CHANNELS 6 Xposition Yposition Zposition Zrotation Xrotation Yrotation
          JOINT rShldr
          {
            OFFSET -13.6458 -0.047 -4.849
            CHANNELS 6 Xposition Yposition Zposition Zrotation Xrotation Yrotation
            JOINT rForeArm
            {
              OFFSET -28.3255 -0.9759 2.2888
              CHANNELS 6 Xposition Yposition Zposition Zrotation Xrotation Yrotation
              JOINT rHand
              {
                OFFSET -22.1583 -0.53 10.8316
                CHANNELS 6 Xposition Yposition Zposition Zrotation Xrotation Yrotation
                JOINT rThumb1
                {
                  OFFSET -0.786 0.112 2.5817
                  CHANNELS 6 Xposition Yposition Zposition Zrotation Xrotation Yrotation
                  JOINT rThumb2
                  {
                    OFFSET -0.3601 -0.878 4.2331
                    CHANNELS 6 Xposition Yposition Zposition Zrotation Xrotation Yrotation
                    JOINT rThumb2_End
                    {
                      OFFSET -1.8127 -1.216 2.2227
                      CHANNELS 6 Xposition Yposition Zposition Zrotation Xrotation Yrotation
                      End Site
                      {
                        OFFSET -0.0181 -0.0122 0.0222
                      }
                    }
                  }
                }
                JOINT rCarpal1
                {
                  OFFSET -0.9571 1.114 1.7695
                  CHANNELS 6 Xposition Yposition Zposition Zrotation Xrotation Yrotation
                  JOINT rIndex1
                  {
                    OFFSET -4.1246 0.487 4.1451
                    CHANNELS 6 Xposition Yposition Zposition Zrotation Xrotation Yrotation
                    JOINT rIndex2
                    {
                      OFFSET -3.4052 -1.454 2.7682
                      CHANNELS 6 Xposition Yposition Zposition Zrotation Xrotation Yrotation
                      JOINT rIndex2_End
                      {
                        OFFSET -1.4531 -1.795 1.2713
                        CHANNELS 6 Xposition Yposition Zposition Zrotation Xrotation Yrotation
                        End Site
                        {
                          OFFSET -0.0145 -0.018 0.0127
                        }
                      }
                    }
                  }
                  JOINT rMid1
                  {
                    OFFSET -5.6954 0.21 2.1184
                    CHANNELS 6 Xposition Yposition Zposition Zrotation Xrotation Yrotation
                    JOINT rMid2
                    {
                      OFFSET -3.9766 -1.54 2.3863
                      CHANNELS 6 Xposition Yposition Zposition Zrotation Xrotation Yrotation
                      JOINT rMid2_End
                      {
                        OFFSET -1.4042 -1.926 1.125
                        CHANNELS 6 Xposition Yposition Zposition Zrotation Xrotation Yrotation
                        End Site
                        {
                          OFFSET -0.014 -0.0193 0.0113
                        }
                      }
                    }
                  }
                }
                JOINT rCarpal2
                {
                  OFFSET -2.0956 0.66 -0.3894
                  CHANNELS 6 Xposition Yposition Zposition Zrotation Xrotation Yrotation
                  JOINT rRing1
                  {
                    OFFSET -5.0395 -0.09 2.4971
                    CHANNELS 6 Xposition Yposition Zposition Zrotation Xrotation Yrotation
                    JOINT rRing2
                    {
                      OFFSET -3.7921 -1.552 1.4806
                      CHANNELS 6 Xposition Yposition Zposition Zrotation Xrotation Yrotation
                      JOINT rRing2_End
                      {
                        OFFSET -1.4655 -1.808 0.9609
                        CHANNELS 6 Xposition Yposition Zposition Zrotation Xrotation Yrotation
                        End Site
                        {
                          OFFSET -0.0147 -0.0181 0.0096
                        }
                      }
                    }
                  }
                  JOINT rPinky1
                  {
                    OFFSET -4.9141 -1.269 0.3592
                    CHANNELS 6 Xposition Yposition Zposition Zrotation Xrotation Yrotation
                    JOINT rPinky2
                    {
                      OFFSET -3.1477 -1.685 0.8462
                      CHANNELS 6 Xposition Yposition Zposition Zrotation Xrotation Yrotation
                      JOINT rPinky2_End
                      {
                        OFFSET -0.8055 -1.585 0.7955
                        CHANNELS 6 Xposition Yposition Zposition Zrotation Xrotation Yrotation
                        End Site
                        {
                          OFFSET -0.0081 -0.0158 0.008
                        }
                      }
                    }
                  }
                }
              }
            }
          }
        }
      }
    }
  }
  JOINT lThigh
  {
    OFFSET 8.367 -8.2066 0.5982
    CHANNELS 6 Xposition Yposition Zposition Zrotation Xrotation Yrotation
    JOINT lShin
    {
      OFFSET 2.1923 -43.463 -0.4932
      CHANNELS 6 Xposition Yposition Zposition Zrotation Xrotation Yrotation
      JOINT lFoot
      {
        OFFSET 0.7333 -45.8593 -2.6451
        CHANNELS 6 Xposition Yposition Zposition Zrotation Xrotation Yrotation
        End Site
        {
          OFFSET 2.6618 -4.2699 12.3931
        }
      }
    }
  }
  JOINT rThigh
  {
    OFFSET -8.367 -8.2066 0.5982
    CHANNELS 6 Xposition Yposition Zposition Zrotation Xrotation Yrotation
    JOINT rShin
    {
      OFFSET -2.1923 -43.463 -0.4931
      CHANNELS 6 Xposition Yposition Zposition Zrotation Xrotation Yrotation
      JOINT rFoot
      {
        OFFSET -0.7333 -45.8593 -2.6451
        CHANNELS 6 Xposition Yposition Zposition Zrotation Xrotation Yrotation
        End Site
        {
          OFFSET -2.6618 -4.2699 12.3931
        }
      }
    }
  }
}
MOTION
Frames:	4
Frame Time:	0.0333333
0 90.174 2.4664 0 0 -0 0 -1.186 -1.5018 0 0 -0 0 9.964 0.2134 0 0 -0 0 13.134 -3.2573 0 0 -0 0 20.686 -1.6905 0 0 -0 0 7.238 -0.1237 0 0 -0 1.7069 20.075 5.0056 0 0 -0 13.6458 -0.047 -4.849 1.66051 0.0835086 5.75766 28.3255 -0.9759 2.2888 -0.0175111 0.895433 15.7816 22.1583 -0.53 10.8316 7.95139e-016 -1.98785e-016 -0 0.786 0.112 2.5817 5.46658e-016 -3.97569e-016 -0 0.3601 -0.878 4.2331 5.96354e-016 0 -0 1.8127 -1.216 2.2227 3.97569e-016 1.98785e-016 9.54166e-015 0.9571 1.114 1.7695 1.49089e-016 -3.97569e-016 -0 4.1246 0.487 4.1451 6.4605e-016 0 3.18055e-015 3.4052 -1.454 2.7682 5.96354e-016 0 3.18055e-015 1.4531 -1.795 1.2713 8.94531e-016 -1.98785e-016 6.36111e-015 5.6954 0.21 2.1184 6.4605e-016 0 3.18055e-015 3.9766 -1.54 2.3863 5.96354e-016 0 3.18055e-015 1.4042 -1.926 1.125 8.94531e-016 -1.98785e-016 6.36111e-015 2.0956 0.66 -0.3894 1.49089e-016 -3.97569e-016 -0 5.0395 -0.09 2.4971 6.4605e-016 0 3.18055e-015 3.7921 -1.552 1.4806 5.96354e-016 0 3.18055e-015 1.4655 -1.808 0.9609 8.94531e-016 -1.98785e-016 6.36111e-015 4.9141 -1.269 0.3591 6.4605e-016 0 3.18055e-015 3.1477 -1.685 0.8462 5.96354e-016 0 3.18055e-015 0.8055 -1.585 0.7955 8.94531e-016 -1.98785e-016 6.36111e-015 -1.7069 20.075 5.0056 0 0 -0 -13.6458 -0.047 -4.849 -1.4496 0.0636048 -5.0245 -28.3255 -0.9759 2.2888 -1.74811 1.20616 -16.8394 -22.1583 -0.53 10.8316 -1.19271e-015 1.98785e-016 -3.18055e-015 -0.786 0.112 2.5817 -3.97569e-016 1.98785e-016 -3.18055e-015 -0.3601 -0.878 4.2331 -2.98177e-016 1.98785e-016 -3.18055e-015 -1.8127 -1.216 2.2227 -2.98177e-016 3.97569e-016 -0 -0.9571 1.114 1.7695 4.96962e-016 0 -6.36111e-015 -4.1246 0.487 4.1451 -9.93923e-017 3.97569e-016 -0 -3.4052 -1.454 2.7682 -8.94531e-016 5.96354e-016 -0 -1.4531 -1.795 1.2713 -3.97569e-016 3.97569e-016 -0 -5.6954 0.21 2.1184 -9.93923e-017 3.97569e-016 -0 -3.9766 -1.54 2.3863 -8.94531e-016 5.96354e-016 -0 -1.4042 -1.926 1.125 -3.97569e-016 3.97569e-016 -0 -2.0956 0.66 -0.3894 4.96962e-016 0 -6.36111e-015 -5.0395 -0.09 2.4971 -9.93923e-017 3.97569e-016 -0 -3.7921 -1.552 1.4806 -8.94531e-016 5.96354e-016 -0 -1.4655 -1.808 0.9609 -3.97569e-016 3.97569e-016 -0 -4.9141 -1.269 0.3592 -9.93923e-017 3.97569e-016 -0 -3.1477 -1.685 0.8462 -8.94531e-016 5.96354e-016 -0 -0.8055 -1.585 0.7955 -3.97569e-016 3.97569e-016 -0 8.367 -8.2066 0.5982 -4.66115 -1.03232 0.120763 2.1923 -43.463 -0.4932 0.00990601 1.55097 0.177175 0.7333 -45.8593 -2.6451 4.65196 -0.54114 -0.255042 -8.367 -8.2066 0.5982 4.66115 -1.03222 -0.120763 -2.1923 -43.463 -0.4931 -0.00990459 1.5509 -0.177176 -0.7333 -45.8593 -2.6451 -4.65196 -0.541171 0.255041 
-25.6822 32.0975 6.93139 0 0 -0 0 -1.186 -1.5018 -0.104224 -0.107628 -0.0798252 -3.55271e-015 9.964 0.2134 -0.208599 -0.21511 -0.159846 -3.55271e-015 13.134 -3.2573 -0.208599 -0.21511 -0.159846 0 20.686 -1.6905 0.267311 0.106624 -0.000412476 0 7.238 -0.1237 -3.71096e-008 0.890024 -8.08693e-008 1.7069 20.075 5.0056 -23.6105 -29.7214 55.9613 13.6458 -0.047 -4.849 -41.352 14.6134 1.70957 28.3255 -0.9759 2.2888 -30.1279 14.0156 21.6794 22.1583 -0.53 10.8316 21.0841 -8.00306 1.58615 0.786 0.112 2.5817 1.59028e-015 -3.18055e-015 -3.18055e-015 0.3601 -0.878 4.2331 5.90842e-007 1.05667e-006 1.20168e-006 1.8127 -1.216 2.2227 -3.18055e-015 -9.54166e-015 -6.36111e-015 0.9571 1.114 1.7695 1.76556e-031 3.18055e-015 -3.18055e-015 4.1246 0.487 4.1451 7.95139e-015 -1.59028e-014 6.36111e-015 3.4052 -1.454 2.7682 5.90842e-007 1.05667e-006 1.20168e-006 1.4531 -1.795 1.2713 1.59028e-015 -3.18055e-015 -3.18055e-015 5.6954 0.21 2.1184 7.95139e-015 -1.59028e-014 6.36111e-015 3.9766 -1.54 2.3863 5.90842e-007 1.05667e-006 1.20168e-006 1.4042 -1.926 1.125 1.59028e-015 -3.18055e-015 -3.18055e-015 2.0956 0.66 -0.3894 1.76556e-031 3.18055e-015 -3.18055e-015 5.0395 -0.09 2.4971 7.95139e-015 -1.59028e-014 6.36111e-015 3.7921 -1.552 1.4806 5.90842e-007 1.05667e-006 1.20168e-006 1.4655 -1.808 0.9609 1.59028e-015 -3.18055e-015 -3.18055e-015 4.9141 -1.269 0.3591 7.95139e-015 -1.59028e-014 6.36111e-015 3.1477 -1.685 0.8462 5.90842e-007 1.05667e-006 1.20168e-006 0.8055 -1.585 0.7955 1.59028e-015 -3.18055e-015 -3.18055e-015 -1.7069 20.075 5.0056 23.6052 -29.7206 -55.9667 -13.6458 -0.047 -4.849 41.5674 14.6069 -1.03422 -28.3255 -0.9759 2.2888 28.1228 15.0728 -21.4975 -22.1583 -0.53 10.8316 -21.053 -8.09384 -1.78018 -0.786 0.112 2.5817 1.59028e-015 1.27222e-014 3.18055e-015 -0.3601 -0.878 4.2331 -1.76556e-031 3.18055e-015 3.18055e-015 -1.8127 -1.216 2.2227 3.18055e-015 0 -0 -0.9571 1.114 1.7695 -5.29669e-031 9.54166e-015 3.18055e-015 -4.1246 0.487 4.1451 7.95139e-015 3.18055e-015 1.59028e-014 -3.4052 -1.454 2.7682 -0 0 3.18055e-015 -1.4531 -1.795 1.2713 3.18055e-015 -3.18055e-015 -3.18055e-015 -5.6954 0.21 2.1184 7.95139e-015 3.18055e-015 1.59028e-014 -3.9766 -1.54 2.3863 -0 0 3.18055e-015 -1.4042 -1.926 1.125 3.18055e-015 -3.18055e-015 -3.18055e-015 -2.0956 0.66 -0.3894 -5.29669e-031 9.54166e-015 3.18055e-015 -5.0395 -0.09 2.4971 7.95139e-015 3.18055e-015 1.59028e-014 -3.7921 -1.552 1.4806 -0 0 3.18055e-015 -1.4655 -1.808 0.9609 3.18055e-015 -3.18055e-015 -3.18055e-015 -4.9141 -1.269 0.3592 7.95139e-015 3.18055e-015 1.59028e-014 -3.1477 -1.685 0.8462 -0 0 3.18055e-015 -0.8055 -1.585 0.7955 3.18055e-015 -3.18055e-015 -3.18055e-015 8.367 -8.2066 0.5982 2.34337 -48.489 13.7463 2.1923 -43.463 -0.4932 172.008 46.503 -167.308 0.7333 -45.8593 -2.6451 6.83939 66.475 7.9066 -8.367 -8.2066 0.5982 -2.38103 -48.5186 -13.864 -2.1923 -43.463 -0.4931 -171.877 46.4681 167.194 -0.7333 -45.8593 -2.6451 -6.60425 67.0555 -8.14924 
-25.6822 32.0975 6.93139 0 0 -0 0 -1.186 -1.5018 -0.104224 -0.107628 -0.0798252 0 9.964 0.2134 -0.208599 -0.21511 -0.159846 -3.55271e-015 13.134 -3.2573 -0.208599 -0.21511 -0.159846 0 20.686 -1.6905 0.40974 0.251324 -0.0138965 0 7.238 -0.1237 -6.8124e-008 1.77118 1.43909e-007 1.7069 20.075 5.0056 -23.6105 -29.7214 55.9613 13.6458 -0.047 -4.849 -41.352 14.6134 1.70957 28.3255 -0.9759 2.2888 -30.1279 14.0156 21.6794 22.1583 -0.53 10.8316 21.0841 -8.00305 1.58615 0.786 0.112 2.5817 1.44616e-007 -7.85836e-007 -1.14088e-006 0.3601 -0.878 4.2331 1.07969e-008 -1.61752e-006 3.25422e-006 1.8127 -1.216 2.2227 6.36111e-015 -3.18055e-015 -0 0.9571 1.114 1.7695 3.18055e-015 -6.36111e-015 -0 4.1246 0.487 4.1451 1.44616e-007 -7.85836e-007 -1.14088e-006 3.4052 -1.454 2.7682 1.07969e-008 -1.61752e-006 3.25422e-006 1.4531 -1.795 1.2713 6.36111e-015 -6.36111e-015 -3.18055e-015 5.6954 0.21 2.1184 1.44616e-007 -7.85836e-007 -1.14088e-006 3.9766 -1.54 2.3863 1.07969e-008 -1.61752e-006 3.25422e-006 1.4042 -1.926 1.125 6.36111e-015 -6.36111e-015 -3.18055e-015 2.0956 0.66 -0.3894 3.18055e-015 -6.36111e-015 -0 5.0395 -0.09 2.4971 1.44616e-007 -7.85836e-007 -1.14088e-006 3.7921 -1.552 1.4806 1.07969e-008 -1.61752e-006 3.25422e-006 1.4655 -1.808 0.9609 6.36111e-015 -6.36111e-015 -3.18055e-015 4.9141 -1.269 0.3591 1.44616e-007 -7.85836e-007 -1.14088e-006 3.1477 -1.685 0.8462 1.07969e-008 -1.61752e-006 3.25422e-006 0.8055 -1.585 0.7955 6.36111e-015 -6.36111e-015 -3.18055e-015 -1.7069 20.075 5.0056 23.6052 -29.7206 -55.9667 -13.6458 -0.047 -4.849 41.5674 14.6069 -1.03423 -28.3255 -0.9759 2.2888 28.1228 15.0728 -21.4975 -22.1583 -0.53 10.8316 -21.053 -8.09383 -1.78017 -0.786 0.112 2.5817 -7.95139e-015 0 6.36111e-015 -0.3601 -0.878 4.2331 -1.11319e-014 3.18055e-015 -0 -1.8127 -1.216 2.2227 -9.54166e-015 -3.18055e-015 3.18055e-015 -0.9571 1.114 1.7695 1.59028e-015 -3.18055e-015 6.36111e-015 -4.1246 0.487 4.1451 -4.77083e-015 9.54166e-015 1.90833e-014 -3.4052 -1.454 2.7682 -7.95139e-015 -6.36111e-015 -0 -1.4531 -1.795 1.2713 -9.54166e-015 -6.36111e-015 6.36111e-015 -5.6954 0.21 2.1184 -4.77083e-015 9.54166e-015 1.90833e-014 -3.9766 -1.54 2.3863 -7.95139e-015 -6.36111e-015 -0 -1.4042 -1.926 1.125 -9.54166e-015 -6.36111e-015 6.36111e-015 -2.0956 0.66 -0.3894 1.59028e-015 -3.18055e-015 6.36111e-015 -5.0395 -0.09 2.4971 -4.77083e-015 9.54166e-015 1.90833e-014 -3.7921 -1.552 1.4806 -7.95139e-015 -6.36111e-015 -0 -1.4655 -1.808 0.9609 -9.54166e-015 -6.36111e-015 6.36111e-015 -4.9141 -1.269 0.3592 -4.77083e-015 9.54166e-015 1.90833e-014 -3.1477 -1.685 0.8462 -7.95139e-015 -6.36111e-015 -0 -0.8055 -1.585 0.7955 -9.54166e-015 -6.36111e-015 6.36111e-015 8.367 -8.2066 0.5982 2.34336 -48.4891 13.7463 2.1923 -43.463 -0.4932 172.008 46.503 -167.308 0.7333 -45.8593 -2.6451 6.83942 66.475 7.90658 -8.367 -8.2066 0.5982 -2.38102 -48.5186 -13.864 -2.1923 -43.463 -0.4931 -171.877 46.4681 167.194 -0.7333 -45.8593 -2.6451 -6.60422 67.0555 -8.14927 
-25.6822 32.0975 6.93139 0 0 -0 0 -1.186 -1.5018 -0.104224 -0.107628 -0.0798251 -3.55271e-015 9.964 0.2134 -0.208599 -0.21511 -0.159846 -3.55271e-015 13.134 -3.2573 -0.208599 -0.21511 -0.159846 -3.55271e-015 20.686 -1.6905 0.552233 0.39602 -0.0277413 -3.55271e-015 7.238 -0.1237 6.94529e-008 2.65415 6.8677e-008 1.7069 20.075 5.0056 -23.6105 -29.7214 55.9613 13.6458 -0.047 -4.849 -41.352 14.6134 1.70957 28.3255 -0.9759 2.2888 -30.1279 14.0156 21.6794 22.1583 -0.53 10.8316 21.0841 -8.00305 1.58614 0.786 0.112 2.5817 -3.18055e-015 -6.36111e-015 -3.18055e-015 0.3601 -0.878 4.2331 1.59028e-015 6.36111e-015 -0 1.8127 -1.216 2.2227 0 0 -0 0.9571 1.114 1.7695 -3.18055e-015 -6.36111e-015 -3.18055e-015 4.1246 0.487 4.1451 7.95139e-015 3.18055e-015 3.18055e-015 3.4052 -1.454 2.7682 3.18055e-015 0 -0 1.4531 -1.795 1.2713 -1.59028e-015 0 -3.18055e-015 5.6954 0.21 2.1184 7.95139e-015 3.18055e-015 3.18055e-015 3.9766 -1.54 2.3863 3.18055e-015 0 -0 1.4042 -1.926 1.125 -1.59028e-015 0 -3.18055e-015 2.0956 0.66 -0.3894 -3.18055e-015 -6.36111e-015 -3.18055e-015 5.0395 -0.09 2.4971 7.95139e-015 3.18055e-015 3.18055e-015 3.7921 -1.552 1.4806 3.18055e-015 0 -0 1.4655 -1.808 0.9609 -1.59028e-015 0 -3.18055e-015 4.9141 -1.269 0.3591 7.95139e-015 3.18055e-015 3.18055e-015 3.1477 -1.685 0.8462 3.18055e-015 0 -0 0.8055 -1.585 0.7955 -1.59028e-015 0 -3.18055e-015 -1.7069 20.075 5.0056 23.6052 -29.7206 -55.9667 -13.6458 -0.047 -4.849 41.5674 14.607 -1.03421 -28.3255 -0.9759 2.2888 28.1228 15.0728 -21.4975 -22.1583 -0.53 10.8316 -21.053 -8.09383 -1.78018 -0.786 0.112 2.5817 5.11603e-006 3.61485e-006 3.01339e-006 -0.3601 -0.878 4.2331 -5.11603e-006 -3.61485e-006 -3.01339e-006 -1.8127 -1.216 2.2227 -8.82781e-031 1.59028e-014 3.18055e-015 -0.9571 1.114 1.7695 1.76556e-031 3.18055e-015 -3.18055e-015 -4.1246 0.487 4.1451 5.11603e-006 3.61485e-006 3.01339e-006 -3.4052 -1.454 2.7682 -5.11603e-006 -3.61485e-006 -3.01339e-006 -1.4531 -1.795 1.2713 -1.59028e-015 -3.18055e-015 -0 -5.6954 0.21 2.1184 5.11603e-006 3.61485e-006 3.01339e-006 -3.9766 -1.54 2.3863 -5.11603e-006 -3.61485e-006 -3.01339e-006 -1.4042 -1.926 1.125 -1.59028e-015 -3.18055e-015 -0 -2.0956 0.66 -0.3894 1.76556e-031 3.18055e-015 -3.18055e-015 -5.0395 -0.09 2.4971 5.11603e-006 3.61485e-006 3.01339e-006 -3.7921 -1.552 1.4806 -5.11603e-006 -3.61485e-006 -3.01339e-006 -1.4655 -1.808 0.9609 -1.59028e-015 -3.18055e-015 -0 -4.9141 -1.269 0.3592 5.11603e-006 3.61485e-006 3.01339e-006 -3.1477 -1.685 0.8462 -5.11603e-006 -3.61485e-006 -3.01339e-006 -0.8055 -1.585 0.7955 -1.59028e-015 -3.18055e-015 -0 8.367 -8.2066 0.5982 2.34337 -48.4891 13.7463 2.1923 -43.463 -0.4932 172.008 46.503 -167.308 0.7333 -45.8593 -2.6451 6.83942 66.475 7.90658 -8.367 -8.2066 0.5982 -2.38103 -48.5186 -13.864 -2.1923 -43.463 -0.4931 -171.877 46.4681 167.194 -0.7333 -45.8593 -2.6451 -6.60426 67.0555 -8.14922 
